<?xml version="1.0" encoding="utf-8"?>
<svg viewBox="7.729 61.168 490.66 318.223" width="490.66px" height="318.223px" xmlns="http://www.w3.org/2000/svg">
  <path class="clr-i-outline clr-i-outline-path-1" d="M 467.724 61.168 L 38.396 61.168 C 21.453 61.168 7.729 72.122 7.729 85.647 L 7.729 354.913 C 7.729 368.436 21.453 379.391 38.396 379.391 L 467.724 379.391 C 484.665 379.391 498.389 368.436 498.389 354.913 L 498.389 85.647 C 498.389 72.122 484.665 61.168 467.724 61.168 Z M 38.396 354.913 L 38.396 85.647 L 467.724 85.647 L 467.724 354.913 Z" style="fill: rgb(255, 255, 255);"/>
  <polygon points="216.567 186.278 124.293 293.323 62.162 249.458 78.416 234.796 119.785 263.999 216.782 151.493 320.28 274.072 423.84 164.835 443.404 176.658 319.116 307.73" class="clr-i-outline clr-i-outline-path-2" style="fill: rgb(255, 255, 255);"/>
</svg>