<?xml version="1.0" encoding="utf-8"?>
<svg viewBox="0 0 500 500" width="500" height="500" xmlns="http://www.w3.org/2000/svg">
  <g transform="matrix(1, 0, 0, 1, 127.079651, 4.264988)"/>
  <g transform="matrix(1, 0, 0, 1, 127.079651, 4.264988)"/>
  <g transform="matrix(1, 0, 0, 1, 127.079651, 4.264988)"/>
  <g transform="matrix(1, 0, 0, 1, 127.079651, 4.264988)"/>
  <g transform="matrix(1, 0, 0, 1, 127.079651, 4.264988)"/>
  <g transform="matrix(1, 0, 0, 1, 127.079651, 4.264988)"/>
  <g transform="matrix(1, 0, 0, 1, 127.079651, 4.264988)"/>
  <g transform="matrix(1, 0, 0, 1, 127.079651, 4.264988)"/>
  <g transform="matrix(1, 0, 0, 1, 127.079651, 4.264988)"/>
  <g transform="matrix(1, 0, 0, 1, 127.079651, 4.264988)"/>
  <g transform="matrix(1, 0, 0, 1, 127.079651, 4.264988)"/>
  <g transform="matrix(1, 0, 0, 1, 127.079651, 4.264988)"/>
  <g transform="matrix(1, 0, 0, 1, 127.079651, 4.264988)"/>
  <g transform="matrix(1, 0, 0, 1, 127.079651, 4.264988)"/>
  <g transform="matrix(1, 0, 0, 1, 127.079651, 4.264988)"/>
  <g transform="matrix(8.176592, 0, 0, 8.220381, 2.435467, 7.893313)" style="">
    <path fill="none" stroke-width="2" d="M 30.281 -0.78 L 30.281 22.989 M 13.931 9.677 C 12.334 10.65 10.848 11.762 9.496 12.994 C 4.175 17.832 0.883 24.518 0.883 31.904 C 0.883 46.673 14.046 58.644 30.281 58.644 C 46.517 58.644 59.678 46.673 59.678 31.904 C 59.678 24.518 56.39 17.832 51.069 12.994 C 49.713 11.762 48.229 10.65 46.632 9.677" style="stroke: rgb(255, 255, 255);"/>
  </g>
  <g transform="matrix(8.176592, 0, 0, 8.220381, 2.435467, 7.893313)" style=""/>
  <g transform="matrix(8.176592, 0, 0, 8.220381, 2.435467, 7.893313)" style=""/>
  <g transform="matrix(8.176592, 0, 0, 8.220381, 2.435467, 7.893313)" style=""/>
  <g transform="matrix(8.176592, 0, 0, 8.220381, 2.435467, 7.893313)" style=""/>
  <g transform="matrix(8.176592, 0, 0, 8.220381, 2.435467, 7.893313)" style=""/>
  <g transform="matrix(8.176592, 0, 0, 8.220381, 2.435467, 7.893313)" style=""/>
  <g transform="matrix(8.176592, 0, 0, 8.220381, 2.435467, 7.893313)" style=""/>
  <g transform="matrix(8.176592, 0, 0, 8.220381, 2.435467, 7.893313)" style=""/>
  <g transform="matrix(8.176592, 0, 0, 8.220381, 2.435467, 7.893313)" style=""/>
  <g transform="matrix(8.176592, 0, 0, 8.220381, 2.435467, 7.893313)" style=""/>
  <g transform="matrix(8.176592, 0, 0, 8.220381, 2.435467, 7.893313)" style=""/>
  <g transform="matrix(8.176592, 0, 0, 8.220381, 2.435467, 7.893313)" style=""/>
  <g transform="matrix(8.176592, 0, 0, 8.220381, 2.435467, 7.893313)" style=""/>
  <g transform="matrix(8.176592, 0, 0, 8.220381, 2.435467, 7.893313)" style=""/>
  <g transform="matrix(8.176592, 0, 0, 8.220381, 2.435467, 7.893313)" style=""/>
</svg>