<?xml version="1.0" encoding="utf-8"?>
<svg viewBox="0 0 500 500" width="500" height="500" xmlns="http://www.w3.org/2000/svg">
  <g id="Business_1_Bold_28_" transform="matrix(1.016007, 0, 0, 1.010704, 0.331405, -0.113508)" style="">
    <path d="M0,268.68h73.023v222.055h345.393V268.68h73.054L245.712,0.735L0,268.68z M387.777,238.056v222.055H103.632V238.056H69.624 L245.712,46.043L421.8,238.056H387.777z" style="fill: rgb(255, 255, 255);"/>
  </g>
  <g transform="matrix(1, 0, 0, 1, 127.079651, 4.264988)"/>
  <g transform="matrix(1, 0, 0, 1, 127.079651, 4.264988)"/>
  <g transform="matrix(1, 0, 0, 1, 127.079651, 4.264988)"/>
  <g transform="matrix(1, 0, 0, 1, 127.079651, 4.264988)"/>
  <g transform="matrix(1, 0, 0, 1, 127.079651, 4.264988)"/>
  <g transform="matrix(1, 0, 0, 1, 127.079651, 4.264988)"/>
  <g transform="matrix(1, 0, 0, 1, 127.079651, 4.264988)"/>
  <g transform="matrix(1, 0, 0, 1, 127.079651, 4.264988)"/>
  <g transform="matrix(1, 0, 0, 1, 127.079651, 4.264988)"/>
  <g transform="matrix(1, 0, 0, 1, 127.079651, 4.264988)"/>
  <g transform="matrix(1, 0, 0, 1, 127.079651, 4.264988)"/>
  <g transform="matrix(1, 0, 0, 1, 127.079651, 4.264988)"/>
  <g transform="matrix(1, 0, 0, 1, 127.079651, 4.264988)"/>
  <g transform="matrix(1, 0, 0, 1, 127.079651, 4.264988)"/>
  <g transform="matrix(1, 0, 0, 1, 127.079651, 4.264988)"/>
</svg>