<?xml version="1.0" encoding="UTF-8" standalone="no"?>
<!-- Created with Inkscape (http://www.inkscape.org/) -->

<svg
   width="210mm"
   height="297mm"
   viewBox="0 0 210 297"
   version="1.1"
   id="svg19"
   sodipodi:docname="Logo.svg"
   inkscape:version="1.1.1 (3bf5ae0d25, 2021-09-20)"
   xmlns:inkscape="http://www.inkscape.org/namespaces/inkscape"
   xmlns:sodipodi="http://sodipodi.sourceforge.net/DTD/sodipodi-0.dtd"
   xmlns:xlink="http://www.w3.org/1999/xlink"
   xmlns="http://www.w3.org/2000/svg"
   xmlns:svg="http://www.w3.org/2000/svg">
  <sodipodi:namedview
     id="namedview21"
     pagecolor="#505050"
     bordercolor="#eeeeee"
     borderopacity="1"
     inkscape:pageshadow="0"
     inkscape:pageopacity="0"
     inkscape:pagecheckerboard="0"
     inkscape:document-units="px"
     showgrid="false"
     inkscape:zoom="0.21291386"
     inkscape:cx="406.26758"
     inkscape:cy="89.237967"
     inkscape:window-width="1024"
     inkscape:window-height="697"
     inkscape:window-x="-8"
     inkscape:window-y="-8"
     inkscape:window-maximized="1"
     inkscape:current-layer="g14633" />
  <defs
     id="defs16">
    <marker
       style="overflow:visible;"
       id="Arrow1Lend"
       refX="0.0"
       refY="0.0"
       orient="auto"
       inkscape:stockid="Arrow1Lend"
       inkscape:isstock="true">
      <path
         transform="scale(0.8) rotate(180) translate(12.5,0)"
         style="fill-rule:evenodd;fill:context-stroke;stroke:context-stroke;stroke-width:1.0pt;"
         d="M 0.0,0.0 L 5.0,-5.0 L -12.5,0.0 L 5.0,5.0 L 0.0,0.0 z "
         id="path14734" />
    </marker>
    <linearGradient
       id="linearGradient14709"
       inkscape:swatch="solid">
      <stop
         style="stop-color:#000000;stop-opacity:1;"
         offset="0"
         id="stop14707" />
    </linearGradient>
    <inkscape:path-effect
       effect="bspline"
       id="path-effect662"
       is_visible="true"
       lpeversion="1"
       weight="33.333333"
       steps="2"
       helper_size="0"
       apply_no_weight="true"
       apply_with_weight="true"
       only_selected="false" />
    <linearGradient
       inkscape:collect="always"
       xlink:href="#linearGradient14709"
       id="linearGradient14711"
       x1="0.38462723"
       y1="23.1863"
       x2="34.468328"
       y2="23.1863"
       gradientUnits="userSpaceOnUse" />
  </defs>
  <g
     inkscape:label="Capa 1"
     inkscape:groupmode="layer"
     id="layer1">
    <g
       id="g14633"
       style="fill-rule:evenodd;fill-opacity:1;stroke-width:1;stroke-miterlimit:4;stroke-dasharray:none;paint-order:fill markers stroke">
      <path
         style="fill:#000000;fill-opacity:0.34482756;fill-rule:evenodd;stroke:#ffffff;stroke-width:5.95135;stroke-linecap:butt;stroke-linejoin:miter;stroke-miterlimit:4;stroke-dasharray:none;stroke-opacity:1;paint-order:fill markers stroke"
         d="M 81.956701,230.33054 C 77.187643,228.4497 67.64763,224.68728 58.031607,217.31955 48.415584,209.95183 38.724333,198.97832 31.98525,186.75043 25.246166,174.52254 21.460521,161.0408 20.248757,148.6558 c -1.211765,-12.385 0.151064,-23.67202 2.422447,-33.78385 2.271383,-10.11182 5.451321,-19.047389 8.707225,-25.161812 3.255904,-6.114423 6.58727,-9.406481 7.647126,-8.622032 1.059856,0.784449 -0.151548,5.644145 -0.378457,11.993607 -0.226909,6.349462 0.530218,14.187667 2.347887,20.380087 1.817669,6.19242 4.694759,10.73858 7.496306,12.85394 2.801546,2.11536 5.527207,1.80183 9.918033,-1.25512 4.390826,-3.05695 10.44785,-8.85722 15.520587,-15.67637 5.072737,-6.81914 9.161236,-14.657372 11.432788,-22.417002 C 87.634251,79.207618 88.088523,71.526159 87.78581,63.45268 87.483096,55.379202 86.423116,46.913909 84.681824,38.448444 82.940532,29.982979 80.517722,21.517703 79.154899,16.814679 77.792076,12.111654 77.489222,11.171054 80.51845,12.89521 c 3.029228,1.724155 9.389106,6.113557 15.143291,11.208774 5.754189,5.095217 10.902649,10.895493 16.126849,17.871817 5.2242,6.976323 10.5241,15.128069 14.46099,23.201717 3.93688,8.073648 6.51112,16.068629 8.2521,18.341332 1.74098,2.272704 2.64954,-1.176113 4.73204,-3.959433 2.0825,-2.783319 5.33809,-4.899597 5.71675,-10.424705 0.37866,-5.525109 -2.11982,-14.460519 -1.02174,-14.186163 1.09809,0.274356 5.79229,9.758611 9.04777,18.341696 3.25549,8.583085 5.0726,16.264542 5.60231,24.259562 0.52971,7.995023 -0.22742,16.303533 -2.04469,23.044153 -1.81726,6.74061 -4.69435,11.91384 -5.37493,14.42176 -0.68057,2.50792 0.83368,2.35114 3.33195,1.48882 2.49827,-0.86233 5.98107,-2.42997 9.00916,-5.48656 3.0281,-3.05658 5.60233,-7.60276 6.88963,-13.63786 1.2873,-6.0351 1.2873,-13.55978 0.60619,-19.281678 -0.68111,-5.721897 -2.04394,-9.640997 -2.27047,-11.444457 -0.22653,-1.80346 0.68203,-1.489931 3.6346,2.42992 2.95258,3.919852 7.94963,11.444545 11.96215,21.085885 4.01253,9.64135 7.04105,21.39867 7.41924,33.31283 0.37819,11.91415 -1.89319,23.98499 -5.60326,34.17457 -3.71008,10.18958 -8.85857,18.49811 -14.99132,25.78759 -6.13275,7.28948 -13.24976,13.56006 -21.27514,18.10623 -8.02538,4.54616 -16.95948,7.36793 -20.21567,7.52485 -3.2562,0.15692 -0.83338,-2.35133 2.72514,-6.97588 3.55851,-4.62456 8.25272,-11.36543 11.1299,-18.34116 2.87718,-6.97573 3.93715,-14.1869 3.33172,-22.88734 -0.60543,-8.70044 -2.87681,-18.89014 -4.23942,-24.45536 -1.3626,-5.56522 -1.81689,-6.50581 -1.43862,-3.29205 0.37828,3.21376 1.58969,10.58168 0.4537,16.38132 -1.13599,5.79963 -4.61877,10.03226 -8.40354,10.81657 -3.78477,0.7843 -7.87327,-1.8807 -11.20517,-5.87796 -3.33189,-3.99726 -5.90613,-9.32725 -7.26944,-15.04945 -1.3633,-5.72221 -1.51473,-11.83601 -1.28769,-17.32306 0.22704,-5.48704 0.83274,-10.34676 2.11982,-14.73665 1.28709,-4.38989 3.25562,-8.30899 4.69441,-10.66087 1.43879,-2.35189 2.34735,-3.13571 -0.68131,-0.3922 -3.02866,2.74351 -9.99424,9.01407 -15.14305,15.99072 -5.148806,6.97664 -8.480175,14.65811 -10.978763,20.14495 -2.498587,5.48683 -4.164266,8.77887 -5.451129,7.2117 -1.286863,-1.56717 -2.195416,-7.99452 -2.725486,-12.30568 -0.53007,-4.31116 -0.681502,-6.5059 -1.363146,-5.0952 -0.681644,1.4107 -1.893051,6.42716 -2.801571,11.52227 -0.908519,5.09512 -1.514218,10.26834 -0.605105,15.52036 0.909113,5.25202 3.331932,10.58202 3.937126,13.95166 0.605194,3.36964 -0.606202,4.78051 -3.103811,4.54573 -2.497609,-0.23478 -6.283239,-2.11595 -8.782622,-6.81862 -2.499384,-4.70268 -3.710792,-12.22737 -4.922546,-14.73618 -1.211754,-2.5088 -2.423167,-5.6e-4 -3.55882,4.93801 -1.135653,4.93858 -2.195634,12.30651 -1.589506,19.67493 0.606128,7.36842 2.877517,14.73636 7.193793,21.63403 4.316276,6.89768 10.676148,13.32501 13.855367,16.53796 3.17922,3.21294 3.179278,3.21297 -1.58978,1.33213 z"
         id="path660"
         inkscape:path-effect="#path-effect662"
         inkscape:original-d="M 86.725759,232.21138 C 77.187305,228.45056 67.647289,224.68814 58.10574,220.92411 48.415654,209.95177 38.724407,198.97825 29.031432,188.00293 25.247176,174.52226 21.46153,161.04052 17.674273,147.55692 c 1.364426,-11.28591 2.727254,-22.57293 4.088574,-33.86179 3.181608,-8.93434 6.361544,-17.869905 9.540016,-26.807254 3.333036,-3.290576 6.664404,-6.582632 9.994288,-9.876363 -1.209914,4.861497 -2.421309,9.721195 -3.634289,14.579392 0.758703,7.840137 1.515843,15.678345 2.271432,23.515135 2.878747,4.54793 5.755837,9.0941 8.631431,13.63876 2.727318,-0.31191 5.452974,-0.62548 8.177152,-0.94061 6.058811,-5.79891 12.115842,-11.59918 18.171446,-17.40119 4.090194,-7.83692 8.17869,-15.675149 12.265726,-23.515124 0.455823,-7.680162 0.910118,-15.36162 1.362845,-23.044833 -1.058468,-8.464008 -2.118452,-16.9293 -3.179998,-25.396343 -2.421363,-8.464008 -4.844164,-16.929286 -7.268573,-25.396334 -0.301289,-0.93902 -0.604174,-1.87961 -0.908568,-2.821814 6.361672,4.391177 12.721547,8.780582 19.080019,13.168471 5.150226,5.802113 10.298686,11.602394 15.445716,17.401191 5.30166,8.153679 10.60155,16.30543 15.90002,24.455742 2.57588,7.996911 5.15012,15.99189 7.72286,23.985435 0.91014,-3.447351 1.81868,-6.896171 2.72571,-10.346657 3.25733,-2.114805 6.51292,-4.231081 9.76715,-6.349083 -2.49708,-8.934333 -4.99556,-17.869744 -7.49573,-26.807255 4.69592,9.48621 9.39013,18.97046 14.08287,28.453308 1.81872,7.683367 3.63582,15.364826 5.45144,23.044832 -0.75561,8.310444 -1.51276,16.618954 -2.27144,24.926044 -2.87565,5.17503 -5.75275,10.34825 -8.63143,15.51998 1.51585,-0.15526 3.03011,-0.31198 4.54284,-0.47033 3.48449,-1.56611 6.96729,-3.13376 10.44859,-4.70302 2.57589,-4.54475 5.15013,-9.09093 7.72286,-13.6388 0.001,-7.52339 0.001,-15.04807 0,-22.574507 -1.36133,-3.917668 -2.72416,-7.836766 -4.08857,-11.757565 0.91014,0.315119 1.81869,0.628666 2.72571,0.940602 4.99879,7.526597 9.99585,15.05128 14.99144,22.57452 3.03019,11.7594 6.0587,23.51673 9.08573,35.27269 -2.26993,12.07296 -4.54131,24.14379 -6.81428,36.21332 -5.14715,8.31042 -10.29563,16.61896 -15.44573,24.92604 -7.11575,6.27242 -14.23276,12.543 -21.35145,18.81208 -8.93294,2.82348 -17.86704,5.64524 -26.80288,8.46547 2.42444,-2.50674 4.84726,-5.01499 7.26856,-7.52485 4.69593,-6.73954 9.39014,-13.48041 14.08288,-20.22301 1.06156,-7.20986 2.12156,-14.42102 3.18,-21.63391 -2.26994,-10.1885 -4.54131,-20.3782 -6.81428,-30.56968 -0.45273,-0.93902 -0.90704,-1.8796 -1.36287,-2.82182 1.21301,7.36983 2.42442,14.73775 3.6343,22.10421 -3.4814,4.23443 -6.96418,8.46706 -10.44859,12.69818 -4.08711,-2.6635 -8.17561,-5.3285 -12.26572,-7.99515 -2.57281,-5.32858 -5.14703,-10.65858 -7.72286,-15.99028 -0.1498,-6.11245 -0.30136,-12.22625 -0.45431,-18.34179 0.60726,-4.8583 1.21299,-9.71801 1.81715,-14.57941 1.97016,-3.91765 3.93867,-7.83676 5.90571,-11.75754 0.91012,-0.78226 1.81868,-1.56608 2.72572,-2.3515 -6.96433,6.2724 -13.9299,12.54297 -20.89716,18.81208 -3.329955,7.68336 -6.661319,15.36483 -9.994297,23.04484 -1.664204,3.29379 -3.329883,6.58583 -4.997153,9.87635 -0.907041,-6.42599 -1.815592,-12.85334 -2.725709,-19.2824 -0.149797,-2.19319 -0.301289,-4.38792 -0.454301,-6.58425 -1.209904,5.01827 -2.421317,10.03473 -3.634295,15.04968 -0.604174,5.17504 -1.209888,10.34826 -1.817137,15.52 2.424457,5.33179 4.847269,10.66179 7.268584,15.99027 -1.209915,1.41256 -2.421315,2.82343 -3.634294,4.23274 -3.784255,-1.87965 -7.569885,-3.76082 -11.357152,-5.64364 -1.209915,-7.5234 -2.421316,-15.04809 -3.634295,-22.57452 -1.209898,2.50993 -2.421316,5.01817 -3.63429,7.52483 -1.05847,7.36983 -2.118453,14.73776 -3.180004,22.10423 2.273028,7.36982 4.544411,14.73776 6.814294,22.10422 6.361689,6.42921 12.721565,12.85654 19.08002,19.28241 z"
         sodipodi:nodetypes="cccccccccccccccccccccccccccccccccccccccccccccccccccccccccccccccccccsc" />
      <text
         xml:space="preserve"
         style="font-style:normal;font-variant:normal;font-weight:normal;font-stretch:normal;font-size:46.1891px;line-height:0.75;font-family:'Century Gothic';-inkscape-font-specification:'Century Gothic';fill-opacity:1;fill-rule:evenodd;stroke:none;stroke-width:5.95135;stroke-miterlimit:4;stroke-dasharray:none;paint-order:fill markers stroke;fill:#ffffff"
         x="2.6762893"
         y="279.33224"
         id="text4642"
         transform="scale(0.98282467,1.0174755)"><tspan
           sodipodi:role="line"
           id="tspan4640"
           style="font-style:normal;font-variant:normal;font-weight:normal;font-stretch:normal;font-size:46.1891px;font-family:'Century Gothic';-inkscape-font-specification:'Century Gothic';fill-opacity:1;fill-rule:evenodd;stroke-width:5.95135;stroke-miterlimit:4;stroke-dasharray:none;paint-order:fill markers stroke;fill:#ffffff"
           x="2.6762893"
           y="279.33224">FIREBANK</tspan></text>
    </g>
  </g>
</svg>
